<svg width="24" height="18" viewBox="0 0 24 18" fill="none" xmlns="http://www.w3.org/2000/svg">
<path d="M23.77 12.67C23.478 12.377 23.003 12.377 22.71 12.67L20.49 14.89V4.65004C20.49 2.58204 18.807 0.900036 16.74 0.900036H10.89C10.476 0.900036 10.14 1.23604 10.14 1.65004C10.14 2.06404 10.476 2.40004 10.89 2.40004H16.74C17.98 2.40004 18.99 3.41004 18.99 4.65004V14.89L16.77 12.67C16.477 12.377 16.002 12.377 15.71 12.67C15.418 12.963 15.416 13.438 15.71 13.73L19.21 17.23C19.355 17.377 19.547 17.45 19.74 17.45C19.933 17.45 20.123 17.378 20.27 17.23L23.77 13.73C24.064 13.438 24.064 12.963 23.77 12.67V12.67ZM13.11 15.95H7.26001C6.02001 15.95 5.01001 14.94 5.01001 13.7V3.46004L7.23001 5.68004C7.37801 5.82704 7.57001 5.90004 7.76201 5.90004C7.95401 5.90004 8.146 5.82704 8.292 5.68004C8.585 5.38704 8.585 4.91204 8.292 4.62004L4.79201 1.12004C4.49901 0.826036 4.02401 0.826036 3.73201 1.12004L0.232005 4.62004C-0.0619949 4.91204 -0.0619949 5.38704 0.232005 5.68004C0.526005 5.97304 0.999005 5.97304 1.29201 5.68004L3.51201 3.46004V13.7C3.51201 15.768 5.19501 17.45 7.26201 17.45H13.112C13.526 17.45 13.862 17.114 13.862 16.7C13.862 16.286 13.525 15.95 13.112 15.95H13.11Z" fill="#657786"/>
</svg>
