<svg width="24" height="24" viewBox="0 0 24 24" fill="none" xmlns="http://www.w3.org/2000/svg">
<path d="M12 22.75C6.072 22.75 1.25 17.928 1.25 12C1.25 6.072 6.072 1.25 12 1.25C17.928 1.25 22.75 6.072 22.75 12C22.75 17.928 17.928 22.75 12 22.75ZM12 2.75C6.9 2.75 2.75 6.9 2.75 12C2.75 17.1 6.9 21.25 12 21.25C17.1 21.25 21.25 17.1 21.25 12C21.25 6.9 17.1 2.75 12 2.75Z" fill="#1DA1F2"/>
<path d="M12 17.1151C10.108 17.1151 8.36701 16.1651 7.34401 14.5711C7.12001 14.2231 7.22101 13.7611 7.57001 13.5361C7.91801 13.3101 8.38201 13.4121 8.60601 13.7621C9.35301 14.9241 10.622 15.6171 12.001 15.6171C13.38 15.6171 14.649 14.9241 15.397 13.7631C15.621 13.4131 16.085 13.3131 16.433 13.5381C16.783 13.7621 16.883 14.2261 16.659 14.5741C15.634 16.1681 13.893 17.1191 12.001 17.1191L12 17.1151Z" fill="#1DA1F2"/>
<path d="M14.738 10.936C15.5543 10.936 16.216 10.2743 16.216 9.45798C16.216 8.6417 15.5543 7.97998 14.738 7.97998C13.9217 7.97998 13.26 8.6417 13.26 9.45798C13.26 10.2743 13.9217 10.936 14.738 10.936Z" fill="#1DA1F2"/>
<path d="M9.262 10.936C10.0783 10.936 10.74 10.2743 10.74 9.45798C10.74 8.6417 10.0783 7.97998 9.262 7.97998C8.44572 7.97998 7.784 8.6417 7.784 9.45798C7.784 10.2743 8.44572 10.936 9.262 10.936Z" fill="#1DA1F2"/>
</svg>
