<svg width="20" height="20" viewBox="0 0 20 20" fill="none" xmlns="http://www.w3.org/2000/svg">
<path d="M10 2.656L18.72 11.376C19.013 11.669 19.488 11.669 19.78 11.376C20.072 11.083 20.074 10.608 19.78 10.316L10.53 1.066C10.238 0.772 9.763 0.772 9.47 1.066L0.22 10.316C0.074 10.461 0 10.653 0 10.846C0 11.039 0.073 11.229 0.22 11.376C0.513 11.668 0.988 11.668 1.28 11.376L10 2.656Z" fill="#1DA1F2"/>
<path d="M10 10.465L18.72 19.185C19.013 19.478 19.488 19.478 19.78 19.185C20.072 18.892 20.074 18.417 19.78 18.125L10.53 8.875C10.238 8.581 9.763 8.581 9.47 8.875L0.22 18.125C0.074 18.27 0 18.462 0 18.655C0 18.848 0.073 19.038 0.22 19.185C0.513 19.477 0.988 19.477 1.28 19.185L10 10.465V10.465Z" fill="#1DA1F2"/>
</svg>
